<svg xmlns="http://www.w3.org/2000/svg" viewBox="0 0 105.75 73.43"><defs><style>.cls-1{fill:#1d4e6d;}.cls-2{fill:#ffa542;}</style></defs><g id="Ebene_2" data-name="Ebene 2"><g id="Ebene_1-2" data-name="Ebene 1"><polygon class="cls-1" points="29.5 73.43 101.27 73.43 99.9 21.9 63.9 4.9 29.5 73.43"/><path class="cls-2" d="M55.48,0h-5.2A73.11,73.11,0,0,0,0,22.45v51H79.74c.31-1.3.62-2.74.89-4.3C67.58,69.57,64.83,55,64.83,55s13.43-.69,16.22,11.34a61.08,61.08,0,0,0,.39-12.2C68.85,57.32,63,43.71,63,43.71s12.68-3.53,18.14,7.18A51.27,51.27,0,0,0,78,38.74c-12.87,6.8-22.43-6.62-22.43-6.62s13-6.84,21.25,3.86A49,49,0,0,0,74,30.63C58.52,25.45,64.86,9.09,64.86,9.09S80.16,15.42,75.56,30a49.93,49.93,0,0,1,2.55,4.67C78.3,22,92,19,92,19s1.2,15.89-12.3,19.27a53.23,53.23,0,0,1,3,11.91C85.41,39,98.19,39,98.19,39s-2,14.73-15.08,15a62.66,62.66,0,0,1-.24,11.32c5.21-9.94,17.35-7.19,17.35-7.19S95,71.94,82.3,69.35c-.25,1.47-.53,2.83-.83,4.08h24.28v-51A73.16,73.16,0,0,0,55.48,0Z"/></g></g></svg>