<svg id="Ebene_1" data-name="Ebene 1" xmlns="http://www.w3.org/2000/svg" viewBox="0 0 1409.85 331.73"><defs><style>.cls-1{font-size:162.33px;font-family:Montserrat-Black, Montserrat;font-weight:800;letter-spacing:0.13em;}.cls-2{fill:#ffa542;}.cls-3{fill:#ffd144;}</style></defs><title>ozapft-logo</title><text class="cls-1" transform="translate(530.84 252.67)">O’ZAPFT</text><path class="cls-2" d="M516.65,404.31H494.94A305.34,305.34,0,0,0,285,498.05V710.92H618c1.31-5.45,2.59-11.43,3.72-17.94-54.47,1.83-66-59.2-66-59.2s56.08-2.88,67.75,47.37a258,258,0,0,0,1.6-50.94C572.48,643.66,548,586.84,548,586.84s52.95-14.78,75.77,30a214.9,214.9,0,0,0-12.89-50.74c-53.72,28.42-93.66-27.62-93.66-27.62s54.3-28.57,88.76,16.12a204.34,204.34,0,0,0-12-22.34c-64.58-21.66-38.1-89.94-38.1-89.94s63.89,26.42,44.7,87.23A212,212,0,0,1,611.15,549c.8-53,58-65.2,58-65.2s5,66.39-51.37,80.5A221.25,221.25,0,0,1,630.44,614C641.63,567,695,567.08,695,567.08s-8.47,61.5-62.94,62.4a262.36,262.36,0,0,1-1,47.27c21.72-41.49,72.43-30,72.43-30s-21.67,58-74.82,47.13c-1,6.12-2.24,11.81-3.47,17H726.56V498A305.51,305.51,0,0,0,516.65,404.31Z" transform="translate(-284.99 -404.31)"/><path class="cls-3" d="M605.94,554.56c-1.32-2.86-2.74-5.7-4.21-8.55q-5.31-3.1-10.82-5.87A67.11,67.11,0,0,1,605.94,554.56Z" transform="translate(-284.99 -404.31)"/><path class="cls-3" d="M648.18,584.1A192.86,192.86,0,0,0,625,562a70.15,70.15,0,0,1-7.26,2.27A221.25,221.25,0,0,1,630.44,614,55.56,55.56,0,0,1,648.18,584.1Z" transform="translate(-284.99 -404.31)"/><path class="cls-3" d="M628.65,693.88c-1,6.12-2.24,11.81-3.47,17h71v-.42a191.19,191.19,0,0,0-4.84-42.61C679.82,683.19,659.57,700.18,628.65,693.88Z" transform="translate(-284.99 -404.31)"/><path class="cls-3" d="M621.67,693c-54.47,1.83-66-59.2-66-59.2s56.08-2.88,67.75,47.37a258,258,0,0,0,1.6-50.94C572.48,643.66,548,586.84,548,586.84s52.95-14.78,75.77,30a214.9,214.9,0,0,0-12.89-50.74c-53.72,28.42-93.66-27.62-93.66-27.62s24.86-13.05,51.62-7.67a190.17,190.17,0,0,0-63-10.71c-105.18,0-190.45,85.26-190.45,190.44v.42H618C619.26,705.47,620.54,699.49,621.67,693Z" transform="translate(-284.99 -404.31)"/><path class="cls-3" d="M684.76,645.35a189.53,189.53,0,0,0-14.31-30.46c-9.15,8.24-21.58,14.31-38.41,14.59a262.36,262.36,0,0,1-1,47.27C644.22,651.58,668,645.92,684.76,645.35Z" transform="translate(-284.99 -404.31)"/></svg>