<?xml version="1.0" encoding="utf-8"?>
<!-- Generator: Adobe Illustrator 24.3.0, SVG Export Plug-In . SVG Version: 6.00 Build 0)  -->
<svg version="1.1" id="Ebene_1" xmlns="http://www.w3.org/2000/svg" xmlns:xlink="http://www.w3.org/1999/xlink" x="0px" y="0px"
	 viewBox="0 0 1409.8 331.7" style="enable-background:new 0 0 1409.8 331.7;" xml:space="preserve">
<style type="text/css">
	.st0{enable-background:new    ;}
	.st1{fill:#FFA542;}
	.st2{fill:#FFD144;}
</style>
<g class="st0">
	<path d="M536.4,195.9c0-34.1,26.8-59.1,63.1-59.1s63.1,25,63.1,59.1c0,34.1-26.8,59.1-63.1,59.1S536.4,229.9,536.4,195.9z
		 M630.2,195.9c0-19.6-13.5-32.5-30.7-32.5s-30.7,12.8-30.7,32.5c0,19.6,13.5,32.5,30.7,32.5S630.2,215.5,630.2,195.9z"/>
	<path d="M728.2,148.9c0,4.5-0.6,8.1-5.2,18.7l-10.4,23.7h-19.3l7.6-26.5c-5.8-2.8-9.6-8.3-9.6-15.9c0-11,7.8-18.2,18.5-18.2
		C720.4,130.8,728.2,137.9,728.2,148.9z"/>
	<path d="M861.3,227.2v25.5H759.6v-20.1l57.3-68H761V139h97.9v20.1l-57.3,68H861.3z"/>
	<path d="M972.7,230.6h-48l-8.9,22.1h-32.8L933.1,139h31.7l50.3,113.6h-33.4L972.7,230.6z M963.3,206.9l-14.6-36.4l-14.6,36.4H963.3
		z"/>
	<path d="M1147.7,181.1c0,25.8-19.5,41.9-50.5,41.9h-19.8v29.7h-32.1V139h51.9C1128.2,139,1147.7,155.1,1147.7,181.1z M1115.2,181.1
		c0-10.6-6.7-16.7-20-16.7h-17.9v33.3h17.9C1108.6,197.6,1115.2,191.5,1115.2,181.1z"/>
	<path d="M1216.5,163.9v25h50.2v24.8h-50.2v39h-32.1V139h89.1v24.8H1216.5z"/>
	<path d="M1334.7,164.5h-34.9V139h101.8v25.5h-34.7v88.1h-32.1V164.5z"/>
</g>
<path class="st1" d="M231.7,0H210C130.4,2.7,55.1,36.3,0,93.7v212.9h333c1.3-5.5,2.6-11.4,3.7-17.9c-54.5,1.8-66-59.2-66-59.2
	s56.1-2.9,67.8,47.4c2.2-16.9,2.7-33.9,1.6-50.9c-52.6,13.5-77.1-43.4-77.1-43.4s53-14.8,75.8,30c-2.2-17.4-6.5-34.4-12.9-50.7
	c-53.7,28.4-93.7-27.6-93.7-27.6s54.3-28.6,88.8,16.1c-3.5-7.7-7.5-15.1-12-22.3C244.4,106.3,270.9,38,270.9,38s63.9,26.4,44.7,87.2
	c3.9,6.3,7.4,12.8,10.6,19.5c0.8-53,58-65.2,58-65.2s5,66.4-51.4,80.5c6.1,16,10.4,32.7,12.7,49.7c11.2-47,64.6-46.9,64.6-46.9
	s-8.5,61.5-62.9,62.4c1.1,15.8,0.8,31.6-1,47.3c21.7-41.5,72.4-30,72.4-30s-21.7,58-74.8,47.1c-1,6.1-2.2,11.8-3.5,17h101.4V93.7
	C386.5,36.3,311.2,2.7,231.7,0z"/>
<path class="st2" d="M321,150.3c-1.3-2.9-2.7-5.7-4.2-8.5c-3.5-2.1-7.1-4-10.8-5.9C311.6,139.8,316.7,144.7,321,150.3z"/>
<path class="st2" d="M363.2,179.8c-7.1-8-14.9-15.4-23.2-22.1c-2.4,0.9-4.8,1.6-7.3,2.3c6.1,16,10.4,32.7,12.7,49.7
	C348,198.1,354.2,187.6,363.2,179.8z"/>
<path class="st2" d="M343.7,289.6c-1,6.1-2.2,11.8-3.5,17h71v-0.4c0-14.3-1.6-28.6-4.8-42.6C394.8,278.9,374.6,295.9,343.7,289.6z"
	/>
<path class="st2" d="M336.7,288.7c-54.5,1.8-66-59.2-66-59.2s56.1-2.9,67.8,47.4c2.2-16.9,2.7-33.9,1.6-50.9
	c-52.5,13.4-77-43.4-77-43.4s53-14.8,75.8,30c-2.2-17.4-6.5-34.4-12.9-50.7c-53.7,28.4-93.7-27.6-93.7-27.6s24.9-13,51.6-7.7
	c-20.2-7.1-41.5-10.7-63-10.7c-105.2,0-190.5,85.3-190.5,190.4v0.4H333C334.3,301.2,335.5,295.2,336.7,288.7z"/>
<path class="st2" d="M399.8,241c-3.9-10.6-8.6-20.8-14.3-30.5c-9.2,8.2-21.6,14.3-38.4,14.6c1.1,15.8,0.8,31.6-1,47.3
	C359.2,247.3,383,241.6,399.8,241z"/>
</svg>
