<?xml version="1.0" standalone="no"?>
<!DOCTYPE svg PUBLIC "-//W3C//DTD SVG 20010904//EN"
 "http://www.w3.org/TR/2001/REC-SVG-20010904/DTD/svg10.dtd">
<svg version="1.0" xmlns="http://www.w3.org/2000/svg"
 width="512.000000pt" height="512.000000pt" viewBox="0 0 512.000000 512.000000"
 preserveAspectRatio="xMidYMid meet">
<metadata>
Created by potrace 1.11, written by Peter Selinger 2001-2013
</metadata>
<g transform="translate(0.000000,512.000000) scale(0.100000,-0.100000)"
fill="#000000" stroke="none">
<path d="M3152 5015 c-153 -46 -313 -317 -412 -700 -16 -61 -32 -137 -35 -170
-4 -33 -9 -63 -12 -67 -2 -4 -6 -105 -9 -225 -5 -225 -15 -283 -52 -316 -9 -8
-87 -51 -172 -94 -233 -119 -372 -210 -526 -345 -392 -342 -478 -865 -215
-1307 39 -66 120 -165 170 -209 14 -13 37 -33 51 -46 97 -85 304 -186 435
-211 37 -7 141 -16 220 -18 l60 -2 3 -70 c5 -135 -83 -431 -190 -637 -46 -88
-129 -211 -182 -268 -33 -35 -42 -40 -84 -41 -26 0 -54 -2 -62 -3 -8 -2 -42
-6 -75 -10 -106 -13 -129 -16 -180 -28 -58 -12 -107 -38 -102 -53 10 -31 101
-53 322 -79 242 -29 1016 -30 1240 -1 17 2 55 7 85 10 103 13 156 24 202 42
65 26 48 54 -48 77 -77 19 -137 28 -294 41 -121 11 -125 12 -166 63 -21 26
-41 49 -44 52 -9 9 -57 83 -90 139 -44 77 -143 310 -175 414 -39 130 -62 341
-41 376 3 4 27 14 53 21 58 16 186 81 232 118 131 105 221 235 282 410 110
316 -70 663 -401 770 -36 11 -83 23 -105 26 -64 8 -75 15 -76 50 -3 147 1 558
6 566 3 5 66 45 139 90 74 44 161 100 193 124 266 202 465 522 499 804 30 250
-33 463 -183 609 -99 97 -171 124 -261 98z m159 -305 c27 -15 56 -60 69 -110
12 -43 15 -142 6 -185 -21 -102 -68 -240 -112 -328 -25 -48 -72 -126 -84 -137
-3 -3 -21 -25 -40 -50 -73 -95 -196 -197 -314 -261 l-75 -40 4 93 c3 51 7 109
10 128 3 19 8 58 11 85 18 152 77 343 150 490 124 251 268 372 375 315z m-648
-1746 c-1 -158 -6 -271 -12 -278 -5 -6 -24 -13 -42 -14 -52 -4 -177 -50 -232
-86 -98 -63 -179 -170 -207 -276 -32 -118 -12 -271 48 -385 36 -67 147 -177
213 -210 l53 -27 -17 23 c-111 157 -149 275 -127 387 26 126 115 221 236 252
89 23 82 60 81 -455 0 -415 -2 -457 -17 -465 -28 -15 -199 -4 -295 19 -274 66
-448 236 -511 501 -36 153 -27 408 19 530 72 194 277 407 587 612 144 94 213
138 219 138 3 0 5 -120 4 -266z m164 -641 c163 -74 296 -240 310 -386 15 -165
-102 -351 -279 -442 -42 -22 -80 -36 -84 -32 -4 4 -9 203 -11 442 -5 484 -10
451 64 418z m-192 -1580 c-3 -27 -8 -63 -11 -82 -9 -56 -58 -190 -101 -276
l-40 -80 -56 -3 c-32 -1 -57 0 -57 3 0 3 18 29 39 58 71 95 173 281 212 390 7
20 15 37 17 37 2 0 1 -21 -3 -47z"/>
</g>
</svg>
