<?xml version="1.0" standalone="no"?>
<!DOCTYPE svg PUBLIC "-//W3C//DTD SVG 20010904//EN"
 "http://www.w3.org/TR/2001/REC-SVG-20010904/DTD/svg10.dtd">
<svg version="1.0" xmlns="http://www.w3.org/2000/svg"
 width="874.000000pt" height="874.000000pt" viewBox="0 0 874.000000 874.000000"
 preserveAspectRatio="xMidYMid meet">
<metadata>
Created by potrace 1.11, written by Peter Selinger 2001-2013
</metadata>
<g transform="translate(0.000000,874.000000) scale(0.100000,-0.100000)"
fill="#000000" stroke="none">
<path d="M4208 8734 c-2 -2 -26 -6 -54 -8 -27 -3 -65 -8 -84 -11 -19 -3 -48
-8 -65 -10 -31 -4 -69 -11 -117 -21 -15 -3 -30 -5 -33 -5 -2 0 -19 -5 -37 -10
-18 -6 -40 -12 -48 -14 -27 -6 -154 -46 -175 -55 -11 -5 -31 -12 -45 -16 -35
-9 -238 -108 -302 -147 -218 -133 -390 -287 -555 -497 -61 -79 -163 -234 -163
-249 0 -6 -4 -11 -9 -11 -5 0 -13 -10 -17 -22 -4 -13 -10 -25 -14 -28 -4 -3
-23 -39 -42 -80 -72 -150 -108 -229 -108 -236 0 -3 -6 -20 -14 -37 -7 -18 -30
-71 -51 -119 -24 -56 -52 -102 -78 -128 -39 -41 -109 -91 -131 -94 -6 -1 -17
-5 -23 -9 -7 -5 -21 -10 -30 -12 -71 -14 -237 -56 -246 -62 -7 -4 -18 -8 -26
-10 -25 -3 -175 -66 -231 -96 -84 -45 -220 -137 -269 -182 -137 -127 -222
-224 -276 -315 -6 -10 -16 -24 -21 -31 -20 -25 -93 -173 -109 -219 -1 -3 -4
-12 -7 -20 -32 -87 -55 -170 -60 -217 -1 -13 -5 -23 -8 -23 -3 0 -6 -23 -7
-51 -2 -28 -6 -63 -10 -77 -14 -58 -14 -220 1 -298 8 -43 12 -82 10 -86 -3 -4
0 -8 6 -8 6 0 9 -4 6 -9 -3 -5 5 -48 19 -96 66 -227 169 -430 304 -598 18 -22
151 -155 173 -173 72 -58 153 -110 235 -151 87 -45 220 -97 270 -108 10 -2 41
-9 68 -15 28 -6 61 -14 75 -16 14 -2 39 -6 56 -9 30 -5 118 -11 284 -19 102
-5 134 -12 180 -39 62 -36 108 -97 127 -171 10 -36 9 -490 -1 -503 -5 -7 -5
-13 0 -13 5 0 10 -111 10 -248 2 -320 4 -353 25 -396 29 -61 64 -82 152 -92
29 -4 55 -8 59 -10 4 -3 9 0 13 6 4 6 10 8 14 6 6 -4 84 -7 176 -5 17 0 271 0
315 0 38 0 467 0 480 0 8 1 503 0 1100 0 597 0 1104 1 1127 4 75 8 120 41 143
105 20 57 26 307 21 925 -1 197 5 244 42 305 44 74 118 115 221 125 47 5 108
9 288 19 37 3 71 6 75 9 4 3 35 8 68 12 32 3 63 9 67 11 4 3 17 7 28 10 47 10
59 14 128 39 148 53 292 136 400 230 133 115 266 287 333 430 13 28 29 53 34
57 6 4 6 8 1 8 -5 0 -4 6 1 12 29 37 104 268 117 363 3 17 9 52 15 80 10 52 8
341 -3 385 -4 14 -9 41 -12 60 -7 43 -40 166 -49 180 -3 5 -8 18 -10 27 -2 10
-11 36 -21 58 -10 22 -18 42 -19 45 -2 17 -57 117 -102 187 -54 84 -144 198
-195 244 -85 78 -108 98 -158 135 -30 22 -66 47 -80 54 -14 7 -27 16 -30 20
-9 14 -165 88 -245 118 -101 36 -132 46 -225 67 -117 28 -225 81 -291 146 -22
21 -113 153 -111 159 1 3 -10 34 -24 70 -14 36 -33 83 -41 105 -9 22 -29 69
-46 105 -17 36 -32 67 -32 70 -5 18 -21 49 -36 70 -9 14 -16 27 -16 30 3 10
-98 167 -167 260 -75 102 -300 334 -353 365 -18 11 -33 22 -33 26 0 5 -95 71
-215 148 -70 45 -260 137 -357 173 -89 32 -281 86 -338 93 -19 3 -51 8 -70 11
-19 3 -51 8 -70 11 -44 6 -447 13 -452 7z m88 -684 c57 -26 103 -75 132 -140
21 -48 24 -65 19 -129 -7 -95 -26 -113 -167 -162 -36 -12 -71 -27 -77 -32 -7
-5 -13 -7 -13 -3 0 4 -19 -3 -42 -15 -24 -12 -44 -21 -45 -21 -2 1 -30 -14
-64 -33 -33 -19 -65 -35 -69 -35 -5 0 -10 -4 -12 -8 -1 -4 -23 -20 -48 -35
-156 -96 -297 -229 -448 -424 -17 -23 -32 -44 -32 -47 0 -2 -15 -27 -33 -54
-18 -27 -46 -75 -62 -106 -54 -103 -99 -137 -176 -135 -36 2 -63 10 -95 31
-25 15 -47 28 -50 28 -13 0 -67 67 -88 109 -24 47 -29 140 -12 186 19 50 38
88 63 127 15 24 28 45 28 48 0 3 16 28 35 55 19 28 46 66 60 87 49 71 185 225
254 287 16 14 40 36 54 49 14 12 39 33 55 45 16 12 34 27 41 33 10 10 68 49
115 79 9 6 34 22 56 36 75 48 282 149 305 149 6 0 18 4 28 9 105 53 202 61
288 21z"/>
<path d="M3488 1435 c-2 -2 -31 -5 -64 -9 -118 -12 -255 -69 -394 -162 -47
-31 -87 -60 -90 -63 -10 -13 -177 -128 -226 -156 -27 -16 -51 -32 -54 -35 -3
-3 -18 -12 -35 -20 -16 -8 -37 -19 -45 -26 -15 -12 -155 -62 -194 -70 -68 -14
-89 -16 -165 -18 -45 -2 -113 2 -150 9 -36 7 -66 13 -66 12 0 -2 -123 36 -140
43 -27 11 -59 21 -63 20 -1 0 -16 7 -32 15 -27 14 -31 14 -36 1 -9 -23 25
-169 63 -271 38 -105 150 -271 228 -340 90 -80 109 -95 121 -95 8 0 14 -4 14
-8 0 -5 21 -22 48 -39 65 -41 232 -125 232 -117 0 3 6 2 13 -4 15 -13 176 -60
227 -68 19 -3 41 -7 48 -9 45 -16 304 -22 424 -11 47 5 148 23 218 41 75 18
239 98 314 152 28 21 82 69 120 107 70 70 176 221 176 250 0 9 5 16 10 16 6 0
10 8 10 18 0 10 4 22 9 27 13 15 60 172 67 225 7 51 10 175 5 185 -3 6 -7 21
-8 35 -5 40 -70 162 -106 200 -94 98 -234 155 -400 163 -42 3 -78 3 -79 2z"/>
<path d="M5328 1435 c-2 -1 -30 -5 -63 -9 -66 -6 -70 -7 -135 -25 -115 -33
-232 -126 -279 -224 -57 -115 -58 -276 -6 -477 45 -172 194 -380 345 -483 25
-17 47 -34 50 -38 3 -4 57 -31 120 -62 98 -46 161 -67 313 -104 53 -12 335
-10 417 3 47 8 99 16 117 18 18 3 36 7 41 10 5 3 19 7 33 10 64 12 188 56 279
99 45 21 185 109 188 118 2 5 8 9 14 9 18 0 182 172 226 236 32 48 111 195
111 207 0 1 3 11 6 22 4 11 11 31 15 45 10 31 18 66 25 116 4 21 8 49 10 62 5
28 0 28 -66 -2 -79 -35 -211 -75 -262 -79 -24 -2 -48 -6 -53 -9 -12 -7 -156
-2 -214 6 -177 27 -341 112 -621 322 -112 83 -191 130 -274 164 -33 14 -62 25
-65 26 -3 0 -12 3 -20 6 -14 6 -57 15 -110 24 -38 6 -138 13 -142 9z"/>
</g>
</svg>
